<svg width="84" height="32" viewBox="0 0 84 32" fill="none" xmlns="http://www.w3.org/2000/svg">
<g clip-path="url(#clip0_205_13086)">
<path d="M20.149 0C16.8999 0 13.7838 1.29072 11.4863 3.58822L3.98825 11.0863C1.69074 13.3838 0.400024 16.4998 0.400024 19.749C0.400024 26.5151 5.88497 32 12.651 32C15.9002 32 19.0162 30.7092 21.3137 28.4117L26.5002 23.2253C26.5002 23.2252 26.5003 23.2254 26.5002 23.2253L41.6118 8.11371C42.709 7.01644 44.1973 6.4 45.749 6.4C48.347 6.4 50.5496 8.09324 51.3132 10.4363L56.0824 5.66716C53.9067 2.25956 50.0918 0 45.749 0C42.4999 0 39.3838 1.29072 37.0863 3.58822L16.7883 23.8863C15.691 24.9836 14.2028 25.6 12.651 25.6C9.41959 25.6 6.80002 22.9805 6.80002 19.749C6.80002 18.1972 7.41646 16.709 8.51373 15.6117L16.0118 8.11371C17.109 7.01644 18.5973 6.4 20.149 6.4C22.7471 6.4 24.9496 8.09331 25.7132 10.4365L30.4825 5.66727C28.3068 2.25963 24.4919 0 20.149 0Z" fill="#FF6600"/>
<path d="M42.3883 23.8863C41.291 24.9836 39.8028 25.6 38.251 25.6C35.6533 25.6 33.451 23.9072 32.6872 21.5645L27.9181 26.3335C30.0939 29.7407 33.9086 32 38.251 32C41.5002 32 44.6162 30.7092 46.9137 28.4117L67.2118 8.11371C68.309 7.01644 69.7972 6.4 71.349 6.4C74.5805 6.4 77.2 9.01956 77.2 12.251C77.2 13.8028 76.5836 15.291 75.4863 16.3883L67.9883 23.8863C66.891 24.9836 65.4028 25.6 63.851 25.6C61.2531 25.6 59.0507 23.9069 58.2869 21.5639L53.5179 26.3331C55.6936 29.7406 59.5084 32 63.851 32C67.1002 32 70.2162 30.7092 72.5137 28.4117L80.0118 20.9137C82.3092 18.6162 83.6 15.5002 83.6 12.251C83.6 5.48495 78.1151 0 71.349 0C68.0999 0 64.9838 1.29072 62.6863 3.58822L42.3883 23.8863Z" fill="#FF6600"/>
</g>
<defs>
<clipPath id="clip0_205_13086">
<rect width="83.2" height="32" fill="white" transform="translate(0.400024)"/>
</clipPath>
</defs>
</svg>
